<svg width="303" height="84" viewBox="0 0 303 84" fill="none" xmlns="http://www.w3.org/2000/svg">
<path d="M133.726 62.2057C130.476 62.2057 127.551 61.6307 124.95 60.4805C122.4 59.2804 120.375 57.6802 118.875 55.68C117.375 53.6297 116.574 51.3545 116.474 48.8542H125.325C125.475 50.6044 126.301 52.0796 127.801 53.2797C129.351 54.4298 131.276 55.0049 133.576 55.0049C135.977 55.0049 137.827 54.5548 139.127 53.6547C140.477 52.7046 141.152 51.5045 141.152 50.0543C141.152 48.5041 140.402 47.354 138.902 46.6039C137.452 45.8538 135.127 45.0287 131.926 44.1286C128.826 43.2785 126.301 42.4534 124.35 41.6533C122.4 40.8532 120.7 39.6281 119.25 37.9779C117.85 36.3277 117.15 34.1525 117.15 31.4521C117.15 29.2519 117.8 27.2517 119.1 25.4514C120.4 23.6012 122.25 22.1511 124.65 21.1009C127.101 20.0508 129.901 19.5258 133.051 19.5258C137.752 19.5258 141.527 20.7259 144.378 23.1262C147.278 25.4764 148.828 28.7018 149.028 32.8023H140.477C140.327 30.9521 139.577 29.4769 138.227 28.3768C136.877 27.2767 135.052 26.7266 132.751 26.7266C130.501 26.7266 128.776 27.1516 127.576 28.0017C126.376 28.8518 125.776 29.977 125.776 31.3771C125.776 32.4773 126.176 33.4024 126.976 34.1525C127.776 34.9025 128.751 35.5026 129.901 35.9527C131.051 36.3527 132.751 36.8778 135.002 37.5279C138.002 38.3279 140.452 39.153 142.352 40.0031C144.303 40.8032 145.978 42.0034 147.378 43.6036C148.778 45.2038 149.503 47.329 149.553 49.9793C149.553 52.3296 148.903 54.4298 147.603 56.28C146.303 58.1303 144.453 59.5804 142.052 60.6306C139.702 61.6807 136.927 62.2057 133.726 62.2057Z" fill="#4A4A4A"/>
<path d="M165.019 27.1766V50.0543C165.019 51.6045 165.369 52.7296 166.069 53.4297C166.819 54.0798 168.069 54.4048 169.819 54.4048H175.07V61.5307H168.319C164.469 61.5307 161.518 60.6306 159.468 58.8303C157.418 57.0301 156.393 54.1048 156.393 50.0543V27.1766H151.517V20.2008H156.393V9.92463H165.019V20.2008H175.07V27.1766H165.019Z" fill="#4A4A4A"/>
<path d="M176.35 40.6782C176.35 36.5277 177.2 32.8523 178.9 29.6519C180.651 26.4516 183.001 23.9763 185.951 22.2261C188.952 20.4259 192.252 19.5258 195.852 19.5258C199.103 19.5258 201.928 20.1758 204.328 21.476C206.779 22.7261 208.729 24.3013 210.179 26.2015V20.2008H218.805V61.5307H210.179V55.3799C208.729 57.3302 206.754 58.9554 204.253 60.2555C201.753 61.5557 198.903 62.2057 195.702 62.2057C192.152 62.2057 188.902 61.3056 185.951 59.5054C183.001 57.6552 180.651 55.1049 178.9 51.8545C177.2 48.5541 176.35 44.8287 176.35 40.6782ZM210.179 40.8282C210.179 37.9779 209.579 35.5026 208.379 33.4024C207.229 31.3021 205.704 29.7019 203.803 28.6018C201.903 27.5017 199.853 26.9516 197.653 26.9516C195.452 26.9516 193.402 27.5017 191.502 28.6018C189.602 29.6519 188.052 31.2271 186.851 33.3274C185.701 35.3776 185.126 37.8279 185.126 40.6782C185.126 43.5286 185.701 46.0289 186.851 48.1791C188.052 50.3294 189.602 51.9795 191.502 53.1297C193.452 54.2298 195.502 54.7799 197.653 54.7799C199.853 54.7799 201.903 54.2298 203.803 53.1297C205.704 52.0296 207.229 50.4294 208.379 48.3291C209.579 46.1789 210.179 43.6786 210.179 40.8282Z" fill="#4A4A4A"/>
<path d="M223.436 40.8282C223.436 36.5777 224.286 32.8523 225.986 29.6519C227.736 26.4016 230.137 23.9013 233.187 22.1511C236.237 20.4009 239.738 19.5258 243.688 19.5258C248.689 19.5258 252.814 20.7259 256.065 23.1262C259.365 25.4764 261.59 28.8518 262.74 33.2524H253.514C252.764 31.2021 251.564 29.6019 249.914 28.4518C248.264 27.3017 246.188 26.7266 243.688 26.7266C240.188 26.7266 237.387 27.9767 235.287 30.477C233.237 32.9273 232.212 36.3777 232.212 40.8282C232.212 45.2788 233.237 48.7542 235.287 51.2545C237.387 53.7548 240.188 55.0049 243.688 55.0049C248.639 55.0049 251.914 52.8296 253.514 48.4791H262.74C261.54 52.6796 259.29 56.03 255.99 58.5303C252.689 60.9806 248.589 62.2057 243.688 62.2057C239.738 62.2057 236.237 61.3306 233.187 59.5804C230.137 57.7802 227.736 55.2799 225.986 52.0796C224.286 48.8292 223.436 45.0787 223.436 40.8282Z" fill="#4A4A4A"/>
<path d="M283.864 40.9033L302.916 61.5307H291.364L276.063 43.7536V61.5307H267.512V6.02417H276.063V38.2779L291.064 20.2008H302.916L283.864 40.9033Z" fill="#4A4A4A"/>
<path d="M59.6025 35.6487C60.5545 35.6487 61.4676 35.8322 62.1279 36.1624L95.1338 52.6653C95.8177 53.0072 95.9168 53.3317 95.917 53.4475C95.917 53.5631 95.8182 53.8885 95.1338 54.2307L39.5547 82.0198C38.8943 82.3499 37.9811 82.5334 37.0293 82.5334C36.0777 82.5334 35.1651 82.3498 34.5049 82.0198L1.49902 65.5168C0.815227 65.1749 0.716007 64.8505 0.71582 64.7346C0.71582 64.619 0.814578 64.2936 1.49902 63.9514L57.0771 36.1624C57.7375 35.8322 58.6506 35.6487 59.6025 35.6487Z" fill="white" stroke="#4A4A4A" stroke-width="1.43132"/>
<path d="M59.6025 18.1822C60.5545 18.1822 61.4676 18.3657 62.1279 18.6959L95.1338 35.1988C95.8177 35.5408 95.9168 35.8652 95.917 35.981C95.917 36.0967 95.8182 36.422 95.1338 36.7643L39.5547 64.5533C38.8943 64.8834 37.9811 65.067 37.0293 65.067C36.0777 65.0669 35.1651 64.8833 34.5049 64.5533L1.49902 48.0504C0.815225 47.7085 0.716007 47.3841 0.71582 47.2682C0.71582 47.1525 0.814577 46.8272 1.49902 46.485L57.0771 18.6959C57.7375 18.3657 58.6506 18.1822 59.6025 18.1822Z" fill="#4A4A4A" stroke="#4A4A4A" stroke-width="1.43132"/>
<path d="M1.17857 31.2241C-0.392858 30.4384 -0.392858 29.1645 1.17857 28.3788L56.7573 0.589289C58.3288 -0.19643 60.8766 -0.19643 62.448 0.589289L95.4538 17.0923C97.0252 17.878 97.0252 19.1519 95.4538 19.9376L39.8751 47.7271C38.3036 48.5128 35.7558 48.5128 34.1844 47.7271L1.17857 31.2241Z" fill="white"/>
<path d="M93.9363 19.1788L95.4538 19.9376L39.8751 47.7271L38.3575 46.9683L93.9363 19.1788ZM93.9363 17.851L60.9305 1.34805C60.1972 0.981378 59.0082 0.981377 58.2748 1.34805L2.69608 29.1375C1.96275 29.5042 1.96275 30.0987 2.69608 30.4653L35.7019 46.9683C36.4352 47.335 37.6242 47.335 38.3575 46.9683L39.8751 47.7271C38.3281 48.5005 35.8351 48.5126 34.2587 47.7633L34.1844 47.7271L1.17857 31.2241C-0.392858 30.4384 -0.392858 29.1645 1.17857 28.3788L56.7573 0.589289L56.8316 0.553074C58.4081 -0.196238 60.9011 -0.184166 62.448 0.589289L95.4538 17.0923L95.5262 17.1294C97.0011 17.9051 97.0011 19.1247 95.5262 19.9004L95.4538 19.9376L93.9363 19.1788C94.6696 18.8122 94.6696 18.2177 93.9363 17.851Z" fill="#4A4A4A"/>
<path d="M3.07546 32.1725L64.3449 1.53773L72.8809 5.80574L11.6114 36.4406L3.07546 32.1725Z" fill="#4A4A4A"/>
<path d="M32.6669 43.1745C32.4574 43.0698 32.4574 42.8999 32.6669 42.7951L55.6192 31.3189C55.8287 31.2142 56.1684 31.2142 56.378 31.3189L57.5161 31.888C57.7256 31.9928 57.7256 32.1626 57.5161 32.2674L34.5638 43.7436C34.3542 43.8484 34.0145 43.8484 33.805 43.7436L32.6669 43.1745Z" fill="#4A4A4A"/>
<path d="M35.5122 44.5972C35.3027 44.4924 35.3027 44.3226 35.5122 44.2178L49.9285 37.0096C50.1381 36.9049 50.4778 36.9049 50.6873 37.0096L51.8254 37.5787C52.035 37.6834 52.035 37.8533 51.8254 37.9581L37.4091 45.1663C37.1996 45.271 36.8599 45.271 36.6503 45.1663L35.5122 44.5972Z" fill="#4A4A4A"/>
<path d="M77.4334 20.7912C77.2239 20.6864 77.2239 20.5166 77.4334 20.4118L85.59 16.3335C85.7995 16.2287 86.1392 16.2287 86.3488 16.3335L90.3322 18.3252C90.5417 18.43 90.5417 18.5998 90.3322 18.7046L82.1756 22.7829C81.9661 22.8877 81.6264 22.8877 81.4169 22.7829L77.4334 20.7912Z" fill="#4A4A4A"/>
</svg>
